<svg xmlns="http://www.w3.org/2000/svg" height="192" width="645.333"><path d="M623.581 192H23.013C10.532 192 0 181.739 0 169.267V23.079C0 10.607 10.532 0 23.013 0H623.58c12.472 0 21.752 10.607 21.752 23.079v146.188c0 12.472-9.596 22.733-22.066 22.733h.314" fill="#b2b1b1"/><path d="M641.937 169.272c0 10.13-8.202 18.333-18.35 18.333H23.013c-10.144 0-18.375-8.203-18.375-18.333V23.076c0-10.124 8.231-18.356 18.375-18.356H623.58c10.154 0 18.352 8.232 18.352 18.356v146.196h.004" fill="#040606"/><path d="M144.588 95.156c-.141-15.426 12.63-22.933 13.215-23.284-7.232-10.545-18.444-11.987-22.382-12.1-9.417-.988-18.546 5.636-23.344 5.636-4.892 0-12.28-5.537-20.236-5.373-10.241.159-19.826 6.088-25.083 15.297-10.844 18.777-2.755 46.373 7.634 61.55 5.198 7.433 11.272 15.734 19.221 15.44 7.778-.322 10.683-4.96 20.072-4.96 9.302 0 12.028 4.96 20.138 4.773 8.346-.135 13.605-7.466 18.62-14.967 6.006-8.522 8.418-16.913 8.514-17.343-.193-.065-16.21-6.174-16.369-24.669M129.27 49.79c4.18-5.233 7.043-12.349 6.249-19.574-6.055.27-13.628 4.187-17.987 9.308-3.857 4.508-7.304 11.9-6.413 18.85 6.8.504 13.785-3.433 18.15-8.583M238.537 124.696l-5.388-16.631c-.568-1.702-1.638-5.703-3.213-12.002h-.19c-.629 2.712-1.638 6.71-3.023 12.002l-5.292 16.631zm18.618 26.56h-10.868l-5.955-18.712h-20.696l-5.672 18.712H203.38l20.507-63.698h12.665l20.603 63.698M299.493 128.099c0-4.469-1.006-8.157-3.024-11.055-2.206-3.024-5.168-4.539-8.884-4.539-2.518 0-4.805.842-6.85 2.505-2.05 1.674-3.388 3.862-4.018 6.573-.316 1.262-.472 2.3-.472 3.113v7.657c0 3.342 1.024 6.16 3.071 8.46 2.048 2.3 4.71 3.451 7.987 3.451 3.842 0 6.836-1.483 8.977-4.442 2.141-2.963 3.213-6.87 3.213-11.723zm10.396-.374c0 7.811-2.11 13.985-6.33 18.52-3.783 4.035-8.476 6.05-14.083 6.05-6.048 0-10.396-2.175-13.041-6.522h-.19v24.195H266.04v-49.52c0-4.914-.128-9.953-.379-15.123h8.977l.568 7.278h.19c3.402-5.483 8.568-8.222 15.498-8.222 5.42 0 9.94 2.14 13.563 6.423 3.623 4.29 5.433 9.928 5.433 16.92M352.324 128.099c0-4.469-1.01-8.157-3.03-11.055-2.205-3.024-5.16-4.539-8.88-4.539-2.525 0-4.806.842-6.853 2.505-2.048 1.674-3.382 3.862-4.013 6.573-.313 1.262-.472 2.3-.472 3.113v7.657c0 3.342 1.024 6.16 3.064 8.46 2.048 2.3 4.712 3.451 7.993 3.451 3.843 0 6.834-1.483 8.975-4.442 2.141-2.963 3.216-6.87 3.216-11.723zm10.396-.374c0 7.811-2.113 13.985-6.339 18.52-3.777 4.035-8.469 6.05-14.078 6.05-6.05 0-10.396-2.175-13.04-6.522h-.187v24.195h-10.207v-49.52c0-4.914-.129-9.953-.378-15.123h8.977l.568 7.278h.19c3.4-5.483 8.56-8.222 15.498-8.222 5.412 0 9.937 2.14 13.564 6.423 3.619 4.29 5.432 9.928 5.432 16.92M421.787 133.396c0 5.418-1.88 9.825-5.656 13.228-4.152 3.721-9.93 5.578-17.352 5.578-6.852 0-12.351-1.325-16.511-3.97l2.365-8.508c4.479 2.712 9.396 4.067 14.754 4.067 3.842 0 6.833-.87 8.984-2.603 2.141-1.735 3.206-4.057 3.206-6.96 0-2.585-.878-4.764-2.645-6.531-1.759-1.767-4.693-3.407-8.788-4.927-11.153-4.16-16.725-10.25-16.725-18.267 0-5.236 1.953-9.529 5.861-12.874 3.899-3.345 9.096-5.018 15.595-5.018 5.796 0 10.61 1.01 14.453 3.025l-2.553 8.318c-3.59-1.952-7.647-2.931-12.191-2.931-3.59 0-6.395.883-8.404 2.648-1.701 1.575-2.552 3.494-2.552 5.766 0 2.52.972 4.6 2.925 6.235 1.702 1.515 4.787 3.15 9.266 4.918 5.478 2.206 9.508 4.787 12.097 7.745 2.58 2.964 3.87 6.652 3.87 11.06M455.527 112.982H444.28v22.302c0 5.67 1.981 8.507 5.955 8.507 1.822 0 3.337-.16 4.534-.472l.28 7.75c-2.009.753-4.656 1.133-7.937 1.133-4.03 0-7.18-1.231-9.45-3.685-2.263-2.458-3.405-6.586-3.405-12.382v-23.153h-6.702v-7.657h6.702v-8.411l10.023-3.025v11.436h11.247v7.657M495.69 128.244c0-4.235-.907-7.867-2.74-10.9-2.14-3.665-5.198-5.498-9.162-5.498-4.104 0-7.217 1.833-9.359 5.497-1.832 3.034-2.738 6.727-2.738 11.092 0 4.236.906 7.868 2.738 10.897 2.207 3.664 5.292 5.497 9.266 5.497 3.898 0 6.956-1.865 9.161-5.59 1.89-3.095 2.833-6.764 2.833-10.995zm10.591-.331c0 7.058-2.02 12.854-6.049 17.389-4.225 4.665-9.835 6.993-16.828 6.993-6.74 0-12.107-2.235-16.108-6.709-4.001-4.472-6.001-10.115-6.001-16.916 0-7.12 2.057-12.949 6.188-17.483 4.124-4.539 9.686-6.806 16.678-6.806 6.742 0 12.163 2.234 16.259 6.713 3.908 4.347 5.861 9.951 5.861 16.819M539.45 114.3a17.67 17.67 0 00-3.215-.28c-3.59 0-6.367 1.355-8.32 4.066-1.702 2.394-2.552 5.418-2.552 9.07v24.1h-10.2l.093-31.468c0-5.296-.13-10.116-.383-14.463h8.891l.373 8.788h.282c1.074-3.02 2.776-5.45 5.104-7.273 2.272-1.641 4.73-2.46 7.376-2.46.944 0 1.794.066 2.552.188v9.732M575.36 123.471c.065-3.024-.599-5.637-1.981-7.843-1.768-2.837-4.479-4.254-8.134-4.254-3.338 0-6.049 1.383-8.125 4.16-1.701 2.207-2.71 4.852-3.02 7.937zm9.732 2.647c0 1.827-.121 3.37-.373 4.627H554.1c.123 4.539 1.599 8.007 4.441 10.4 2.58 2.141 5.918 3.212 10.014 3.212 4.533 0 8.665-.725 12.386-2.174l1.599 7.086c-4.348 1.894-9.48 2.838-15.397 2.838-7.124 0-12.715-2.093-16.782-6.287-4.057-4.188-6.096-9.812-6.096-16.87 0-6.928 1.89-12.696 5.675-17.295 3.964-4.913 9.321-7.368 16.063-7.368 6.618 0 11.629 2.455 15.032 7.368 2.701 3.908 4.057 8.731 4.057 14.463M229.87 48.508c0-3.653-.967-6.453-2.902-8.405-1.936-1.95-4.759-2.924-8.475-2.924-1.58 0-2.926.108-4.04.325v23.4c.618.094 1.75.14 3.39.14 3.838 0 6.801-1.067 8.892-3.204 2.089-2.136 3.136-5.247 3.136-9.332zm5.291-.14c0 5.635-1.686 9.875-5.061 12.723-3.128 2.63-7.568 3.945-13.323 3.945-2.85 0-5.296-.123-7.338-.37V33.88c2.664-.432 5.538-.649 8.638-.649 5.478 0 9.611 1.192 12.396 3.576 3.123 2.692 4.688 6.545 4.688 11.56M258.001 53.453c0-2.08-.449-3.865-1.346-5.354-1.052-1.802-2.552-2.702-4.502-2.702-2.014 0-3.548.9-4.6 2.702-.897 1.489-1.345 3.305-1.345 5.445 0 2.083.448 3.865 1.345 5.358 1.086 1.799 2.599 2.699 4.554 2.699 1.916 0 3.417-.917 4.501-2.747.93-1.52 1.393-3.32 1.393-5.4zm5.203-.164c0 3.468-.99 6.316-2.973 8.543-2.075 2.293-4.828 3.438-8.264 3.438-3.315 0-5.951-1.099-7.919-3.298-1.963-2.197-2.945-4.968-2.945-8.31 0-3.498 1.009-6.36 3.038-8.59 2.03-2.23 4.759-3.343 8.195-3.343 3.315 0 5.973 1.099 7.988 3.296 1.917 2.136 2.88 4.891 2.88 8.264M300.81 42.193l-7.06 22.565h-4.594l-2.927-9.798a72.529 72.529 0 01-1.813-7.29h-.088a53.137 53.137 0 01-1.815 7.29l-3.108 9.798h-4.646l-6.638-22.565h5.156l2.552 10.726a117.842 117.842 0 011.534 7.242h.089c.373-1.886.99-4.286 1.86-7.197l3.201-10.77h4.087l3.065 10.54a84.921 84.921 0 011.81 7.427h.14c.341-2.321.85-4.796 1.533-7.428l2.739-10.54h4.922M326.813 64.758h-5.016V51.836c0-3.983-1.514-5.975-4.548-5.975-1.486 0-2.692.548-3.622 1.644-.926 1.096-1.392 2.386-1.392 3.868v13.385h-5.016v-16.11c0-1.983-.062-4.132-.183-6.455h4.408l.233 3.526h.14c.586-1.094 1.455-2.003 2.6-2.723 1.36-.844 2.879-1.267 4.548-1.267 2.108 0 3.856.68 5.25 2.043 1.734 1.67 2.598 4.164 2.598 7.475v13.511M340.648 64.758h-5.012v-32.92h5.012v32.92M364.973 53.453c0-2.08-.449-3.865-1.346-5.354-1.047-1.802-2.552-2.702-4.496-2.702-2.02 0-3.554.9-4.6 2.702-.898 1.489-1.347 3.305-1.347 5.445 0 2.083.45 3.865 1.347 5.358 1.084 1.799 2.598 2.699 4.553 2.699 1.916 0 3.412-.917 4.496-2.747.935-1.52 1.393-3.32 1.393-5.4zm5.207-.164c0 3.468-.99 6.316-2.972 8.543-2.076 2.293-4.833 3.438-8.264 3.438-3.32 0-5.956-1.099-7.919-3.298-1.964-2.197-2.945-4.968-2.945-8.31 0-3.498 1.01-6.36 3.039-8.59 2.028-2.23 4.757-3.343 8.189-3.343 3.319 0 5.973 1.099 7.993 3.296 1.916 2.136 2.879 4.891 2.879 8.264M389.252 57.004v-3.481c-5.535-.094-8.301 1.424-8.301 4.549 0 1.177.317 2.059.962 2.648.646.586 1.468.88 2.45.88 1.104 0 2.132-.347 3.066-1.044.944-.697 1.524-1.585 1.739-2.67.056-.247.084-.54.084-.882zm5.208 7.754h-4.507l-.374-2.6h-.139c-1.543 2.074-3.74 3.112-6.592 3.112-2.13 0-3.852-.682-5.15-2.045-1.18-1.236-1.767-2.77-1.767-4.596 0-2.754 1.149-4.858 3.458-6.314 2.31-1.454 5.554-2.167 9.732-2.136v-.419c0-2.97-1.561-4.456-4.684-4.456-2.225 0-4.188.557-5.88 1.67l-1.02-3.295c2.095-1.3 4.684-1.95 7.742-1.95 5.898 0 8.853 3.111 8.853 9.334v8.31c0 2.258.113 4.056.328 5.385M417.767 55.241V51.48c0-.651-.047-1.176-.142-1.579a5.698 5.698 0 00-1.813-3.04c-.935-.82-2.056-1.232-3.356-1.232-1.87 0-3.337.744-4.412 2.23-1.067 1.486-1.61 3.389-1.61 5.71 0 2.23.515 4.041 1.543 5.434 1.086 1.484 2.554 2.227 4.386 2.227 1.645 0 2.964-.62 3.964-1.856.962-1.145 1.44-2.524 1.44-4.132zm5.197 9.517h-4.45l-.234-3.622h-.14c-1.421 2.755-3.843 4.134-7.245 4.134-2.72 0-4.983-1.068-6.778-3.204-1.794-2.136-2.693-4.906-2.693-8.311 0-3.654.973-6.61 2.927-8.868 1.888-2.106 4.206-3.158 6.965-3.158 3.028 0 5.15 1.022 6.357 3.064h.094V31.84h5.02v26.838c0 2.197.056 4.223.177 6.081M460.668 53.453c0-2.08-.448-3.865-1.345-5.354-1.058-1.802-2.554-2.702-4.507-2.702-2.01 0-3.544.9-4.6 2.702-.897 1.489-1.345 3.305-1.345 5.445 0 2.083.448 3.865 1.345 5.358 1.085 1.799 2.599 2.699 4.553 2.699 1.916 0 3.422-.917 4.506-2.747.926-1.52 1.393-3.32 1.393-5.4zm5.197-.164c0 3.468-.99 6.316-2.972 8.543-2.076 2.293-4.824 3.438-8.264 3.438-3.309 0-5.946-1.099-7.918-3.298-1.964-2.197-2.946-4.968-2.946-8.31 0-3.498 1.01-6.36 3.039-8.59 2.03-2.23 4.759-3.343 8.199-3.343 3.309 0 5.974 1.099 7.984 3.296 1.916 2.136 2.878 4.891 2.878 8.264M492.837 64.758h-5.01V51.836c0-3.983-1.515-5.975-4.554-5.975-1.486 0-2.692.548-3.617 1.644-.927 1.096-1.393 2.386-1.393 3.868v13.385h-5.02v-16.11c0-1.983-.056-4.132-.178-6.455h4.403l.233 3.526h.142c.588-1.094 1.457-2.003 2.598-2.723 1.364-.844 2.879-1.267 4.552-1.267 2.104 0 3.852.68 5.246 2.043 1.738 1.67 2.598 4.164 2.598 7.475v13.511M526.596 45.953h-5.524v10.959c0 2.786.981 4.18 2.925 4.18.898 0 1.646-.078 2.235-.234l.13 3.807c-.99.371-2.29.558-3.898.558-1.981 0-3.524-.605-4.637-1.81-1.122-1.21-1.674-3.235-1.674-6.082V45.953h-3.3v-3.76h3.3V38.06l4.919-1.484v5.617h5.524v3.76M553.156 64.758h-5.02V51.93c0-4.046-1.515-6.068-4.544-6.068-2.327 0-3.916 1.175-4.787 3.52-.149.494-.233 1.096-.233 1.807v13.57h-5.01v-32.92h5.01v13.6h.093c1.58-2.471 3.843-3.709 6.779-3.709 2.075 0 3.795.68 5.16 2.043 1.701 1.701 2.552 4.225 2.552 7.568v13.418M575.761 51.11c.038-1.487-.289-2.773-.972-3.855-.869-1.394-2.196-2.09-3.992-2.09-1.636 0-2.972.68-3.992 2.043-.832 1.085-1.326 2.384-1.485 3.901zm4.787 1.298c0 .897-.064 1.655-.187 2.275H565.32c.065 2.229.785 3.93 2.177 5.106 1.272 1.054 2.918 1.58 4.928 1.58 2.224 0 4.254-.355 6.086-1.067l.785 3.482c-2.141.927-4.656 1.393-7.572 1.393-3.497 0-6.245-1.029-8.237-3.088-2-2.059-2.991-4.821-2.991-8.288 0-3.405.925-6.238 2.785-8.497 1.946-2.415 4.572-3.621 7.891-3.621 3.244 0 5.712 1.206 7.376 3.621 1.337 1.92 2 4.288 2 7.104" fill="#fff"/></svg>