<svg xmlns="http://www.w3.org/2000/svg" height="224.933" width="581.08"><defs><linearGradient id="b" spreadMethod="pad" gradientTransform="rotate(-135 687.488 395.296) scale(667.315)" gradientUnits="userSpaceOnUse" y2="0" x2="1" y1="0" x1="0"><stop offset="0" stop-color="#5797d7"/><stop offset=".007" stop-color="#5898d8"/><stop offset=".26" stop-color="#60bfee"/><stop offset=".512" stop-color="#63cdf4"/><stop offset=".76" stop-color="#6ccfec"/><stop offset="1" stop-color="#6fd0ea"/></linearGradient><linearGradient id="d" spreadMethod="pad" gradientTransform="rotate(180 616.235 421.727) scale(680.333)" gradientUnits="userSpaceOnUse" y2="0" x2="1" y1="0" x1="0"><stop offset="0" stop-color="#f9e105"/><stop offset=".409" stop-color="#fab60a"/><stop offset=".775" stop-color="#f89b0f"/><stop offset="1" stop-color="#f79110"/></linearGradient><linearGradient id="f" spreadMethod="pad" gradientTransform="scale(-904.933) rotate(45 .498 -1.737)" gradientUnits="userSpaceOnUse" y2="0" x2="1" y1="0" x1="0"><stop offset="0" stop-color="#ef2a43"/><stop offset="1" stop-color="#c31362"/></linearGradient><linearGradient id="h" spreadMethod="pad" gradientTransform="scale(404.09) rotate(-45 4.786 .28)" gradientUnits="userSpaceOnUse" y2="0" x2="1" y1="0" x1="0"><stop offset="0" stop-color="#3da56b"/><stop offset=".069" stop-color="#3cad6a"/><stop offset=".476" stop-color="#4ebf65"/><stop offset=".801" stop-color="#5ac35d"/><stop offset="1" stop-color="#60c55a"/></linearGradient><linearGradient id="j" spreadMethod="pad" gradientTransform="rotate(180 616.235 421.727) scale(680.333)" gradientUnits="userSpaceOnUse" y2="0" x2="1" y1="0" x1="0"><stop offset="0" stop-color="#c3b218"/><stop offset=".409" stop-color="#c6931a"/><stop offset=".775" stop-color="#c97d1b"/><stop offset="1" stop-color="#c9741b"/></linearGradient><linearGradient id="l" spreadMethod="pad" gradientTransform="scale(-904.933) rotate(45 .498 -1.737)" gradientUnits="userSpaceOnUse" y2="0" x2="1" y1="0" x1="0"><stop offset="0" stop-color="#cd2334"/><stop offset="1" stop-color="#99164d"/></linearGradient><linearGradient id="n" spreadMethod="pad" gradientTransform="rotate(-135 687.488 395.296) scale(667.315)" gradientUnits="userSpaceOnUse" y2="0" x2="1" y1="0" x1="0"><stop offset="0" stop-color="#4688cf"/><stop offset=".007" stop-color="#4688cf"/><stop offset=".26" stop-color="#4aaae3"/><stop offset=".512" stop-color="#4cbee4"/><stop offset=".76" stop-color="#53c7df"/><stop offset="1" stop-color="#54c7dc"/></linearGradient><linearGradient id="p" spreadMethod="pad" gradientTransform="scale(-904.933) rotate(45 .498 -1.737)" gradientUnits="userSpaceOnUse" y2="0" x2="1" y1="0" x1="0"><stop offset="0" stop-color="#e12439"/><stop offset="1" stop-color="#ab1556"/></linearGradient><linearGradient id="r" spreadMethod="pad" gradientTransform="rotate(180 616.235 421.727) scale(680.333)" gradientUnits="userSpaceOnUse" y2="0" x2="1" y1="0" x1="0"><stop offset="0" stop-color="#d8c411"/><stop offset=".409" stop-color="#dba114"/><stop offset=".775" stop-color="#dd8917"/><stop offset="1" stop-color="#de7f18"/></linearGradient><linearGradient id="t" spreadMethod="pad" gradientTransform="rotate(180 616.235 421.727) scale(680.333)" gradientUnits="userSpaceOnUse" y2="0" x2="1" y1="0" x1="0"><stop offset="0" stop-color="#f8ea27"/><stop offset=".409" stop-color="#fccb28"/><stop offset=".775" stop-color="#fab42a"/><stop offset="1" stop-color="#f9ab2b"/></linearGradient><linearGradient id="v" spreadMethod="pad" gradientTransform="rotate(-135 687.488 395.296) scale(667.315)" gradientUnits="userSpaceOnUse" y2="0" x2="1" y1="0" x1="0"><stop offset="0" stop-color="#6cb7e8"/><stop offset=".007" stop-color="#6cb8e8"/><stop offset=".26" stop-color="#6cd0f6"/><stop offset=".512" stop-color="#75d2f0"/><stop offset=".76" stop-color="#7dd5eb"/><stop offset="1" stop-color="#7ed5e9"/></linearGradient><clipPath id="a" clipPathUnits="userSpaceOnUse"><path d="M576.66 495.141l-2.086 2.007c-8.176 8.653-13.015 22.09-13.015 39.5v-4.097 621.829c0 .05 0 .1.004.16-.004-.06-.004-.12-.004-.17v-4.11c0 18.85 5.64 33.05 15.078 41.56l348.351-348.355L576.66 495.141m-14.953 664.379c0 .03.004.07.008.11-.004-.04-.008-.08-.008-.11m.012.2c0 .03.004.05.004.07 0-.02-.004-.04-.004-.07m.011.22v0"/></clipPath><clipPath id="c" clipPathUnits="userSpaceOnUse"><path d="M1041.09 723.195l2.65 1.508 137.57 78.168c12.66 7.195 21.24 15.863 25.74 25.055-4.5-9.199-13.08-17.871-25.74-25.071l-137.57-78.164-2.65-1.496m.03 4.125L924.988 843.465l116.132 116.144 140.19-79.652c17.81-10.117 27.8-23.148 29.47-36.469v-.054c-1.67-13.297-11.66-26.336-29.47-36.454l-140.19-79.66"/></clipPath><clipPath id="e" clipPathUnits="userSpaceOnUse"><path d="M601.492 481.879c-9.726 0-18.215 3.172-24.836 9.141l.012.011c6.621-5.98 15.117-9.152 24.852-9.152a45.94 45.94 0 01-.028 0m.02 4.109c-9.731 0-18.223 3.172-24.844 9.141l-.008.012 348.328 348.324L1041.12 727.32 633.004 495.43c-11.289-6.41-21.984-9.442-31.492-9.442m-24.965 5.133a32.822 32.822 0 00-1.789 1.738l1.789-1.738"/></clipPath><clipPath id="g" clipPathUnits="userSpaceOnUse"><path d="M924.988 843.465L576.637 1191.82c6.613 5.97 15.097 9.13 24.82 9.13 9.527 0 20.238-3.04 31.547-9.46l408.116-231.881-116.132-116.144m118.752 118.762L633.004 1195.59c-11.309 6.43-22.024 9.47-31.551 9.47h-.238.277c9.512 0 20.215-3.04 31.512-9.45l410.736-233.38"/></clipPath><clipPath id="i" clipPathUnits="userSpaceOnUse"><path d="M1041.09 723.195l2.65 1.508-2.65-1.504"/></clipPath><clipPath id="k" clipPathUnits="userSpaceOnUse"><path d="M601.52 481.879c-9.735 0-18.231 3.172-24.852 9.152l-.012-.011c-.035.031-.074.058-.109.101l-1.789 1.738c-.059.063-.117.121-.18.192l2.09 2.078c6.621-5.969 15.113-9.141 24.844-9.141 9.508 0 20.203 3.032 31.492 9.442l408.116 231.89 2.62-2.617-2.65-1.504-408.086-231.871c-9.524-5.406-18.621-8.418-26.945-9.226a45.94 45.94 0 00-4.539-.223"/></clipPath><clipPath id="m" clipPathUnits="userSpaceOnUse"><path d="M574.574 493.051c-8.176 8.66-13.015 22.078-13.015 39.5v4.097c0-17.41 4.839-30.847 13.015-39.5l2.086-2.007-2.086-2.09"/></clipPath><clipPath id="o" clipPathUnits="userSpaceOnUse"><path d="M574.578 493.051h-.004l2.086 2.09.008-.012-2.09-2.078"/></clipPath><clipPath id="q" clipPathUnits="userSpaceOnUse"><path d="M1043.74 724.703l-2.62 2.617 140.19 79.66c17.81 10.118 27.8 23.157 29.47 36.454 0-5.223-1.25-10.446-3.73-15.508-4.5-9.192-13.08-17.86-25.74-25.055l-137.57-78.168"/></clipPath><clipPath id="s" clipPathUnits="userSpaceOnUse"><path d="M1210.78 843.488c-1.67 13.321-11.66 26.352-29.47 36.469l-140.19 79.652 2.61 2.614.01-.004 137.57-78.168c19.63-11.156 29.46-25.856 29.47-40.563"/></clipPath><clipPath id="u" clipPathUnits="userSpaceOnUse"><path d="M561.559 1150.26v4.11c0 .05 0 .11.004.17v.01a87.913 87.913 0 00.144 4.97c0 .03.004.07.008.11 0 .03 0 .06.004.09 0 .03.004.05.004.07.004.05.004.1.007.15v.02c.93 14.72 5.563 26.22 12.844 33.92l2.063-2.06c-9.438-8.51-15.078-22.71-15.078-41.56m15 45.57l.093.09c-.027-.03-.062-.06-.093-.09"/></clipPath></defs><path d="M581.075 224.933H0V.001h581.075v224.932M37.489 168.702c0 10.308 8.435 18.743 18.744 18.743h468.61c10.309 0 18.744-8.435 18.744-18.743V56.233c0-10.309-8.435-18.744-18.744-18.744H56.233c-10.309 0-18.744 8.435-18.744 18.744V168.7" fill="#fff"/><path d="M524.843 187.444H56.233c-10.309 0-18.744-8.435-18.744-18.744V56.233c0-10.309 8.435-18.744 18.744-18.744h468.61c10.309 0 18.744 8.435 18.744 18.744V168.7c0 10.31-8.435 18.744-18.744 18.744" fill="#100f0d"/><path d="M524.843 37.49H56.233c-10.309 0-18.744 8.435-18.744 18.745v112.467c0 10.308 8.435 18.743 18.744 18.743h468.61c10.309 0 18.744-8.435 18.744-18.743V56.235c0-10.31-8.435-18.744-18.744-18.744m0 2.997c8.681 0 15.744 7.064 15.744 15.747v112.467c0 8.68-7.063 15.745-15.744 15.745H56.233c-8.682 0-15.745-7.064-15.745-15.745V56.235c0-8.683 7.063-15.747 15.745-15.747h468.61" fill="#a2a2a1"/><path d="M215.255 75.89c0 3.142-.931 5.643-2.794 7.509-2.116 2.218-4.873 3.328-8.264 3.328-3.246 0-6.006-1.124-8.277-3.375-2.273-2.252-3.408-5.044-3.408-8.373 0-3.332 1.135-6.122 3.408-8.374 2.27-2.25 5.03-3.377 8.277-3.377a11.6 11.6 0 014.618.944c1.464.63 2.64 1.465 3.518 2.513l-1.977 1.979c-1.49-1.78-3.54-2.67-6.159-2.67-2.368 0-4.414.831-6.142 2.497-1.728 1.666-2.592 3.828-2.592 6.488 0 2.66.864 4.821 2.592 6.488 1.728 1.665 3.774 2.496 6.142 2.496 2.512 0 4.607-.836 6.283-2.511 1.088-1.092 1.717-2.61 1.885-4.557h-8.168v-2.702h10.9c.106.588.158 1.152.158 1.698" fill="#fff"/><path d="M215.255 75.89h-.134c-.001 3.117-.918 5.577-2.754 7.415l-.002.002h-.001c-2.09 2.192-4.804 3.285-8.167 3.286-3.216-.001-5.934-1.108-8.182-3.336-2.25-2.229-3.368-4.978-3.37-8.278.002-3.302 1.12-6.05 3.37-8.278 2.248-2.229 4.966-3.337 8.182-3.34 1.595 0 3.118.312 4.566.932 1.448.624 2.605 1.448 3.468 2.478l.102-.086-.094-.094-1.978 1.978.095.095.103-.087c-1.515-1.81-3.614-2.717-6.262-2.716-2.398-.001-4.485.847-6.234 2.534-1.756 1.69-2.635 3.896-2.634 6.584-.001 2.688.878 4.893 2.634 6.582 1.749 1.688 3.836 2.536 6.234 2.535 2.542.001 4.678-.85 6.378-2.55 1.114-1.118 1.754-2.67 1.924-4.64l.012-.145h-8.18v-2.434h10.766v-.134l-.132.024c.106.58.156 1.136.156 1.674h.267a9.61 9.61 0 00-.16-1.722l-.02-.109h-11.144v2.968h8.301v-.133l-.132-.011c-.168 1.925-.786 3.408-1.848 4.473-1.653 1.65-3.705 2.471-6.188 2.472-2.336-.001-4.342-.816-6.049-2.458-1.701-1.643-2.55-3.76-2.552-6.392.001-2.631.85-4.75 2.552-6.391 1.707-1.644 3.713-2.459 6.05-2.46 2.589.001 4.59.873 6.055 2.621l.094.111 2.166-2.167-.078-.094c-.894-1.066-2.088-1.914-3.567-2.55a11.75 11.75 0 00-4.67-.954c-3.278-.002-6.08 1.141-8.371 3.417-2.298 2.273-3.45 5.105-3.448 8.467-.002 3.36 1.15 6.193 3.448 8.468 2.292 2.274 5.093 3.414 8.37 3.413 3.419.001 6.22-1.123 8.36-3.37l-.096-.091.094.094c1.892-1.892 2.834-4.436 2.833-7.602h-.133M232.535 66.496H222.29v7.132h9.237v2.701h-9.237v7.132h10.244v2.764h-13.132V63.732h13.132v2.764" fill="#fff"/><path d="M232.535 66.496v-.133h-10.378v7.398h9.238v2.435h-9.238v7.399h10.244v2.497h-12.865V63.865h12.865v2.631h.134v-.133.133h.133v-2.897h-13.399v22.76h13.399v-3.031h-10.244v-6.865h9.237v-2.968h-9.237v-6.866h10.244v-.133h-.133M244.721 86.225h-2.892V66.496h-6.282v-2.764h15.457v2.764h-6.283v19.73" fill="#fff"/><path d="M244.721 86.225v-.133h-2.758v-19.73h-6.283v-2.497h15.19v2.498h-6.282v19.862h.133v-.133.133h.134V66.63h6.282V63.6h-15.724v3.03h6.283v19.73h3.159v-.134h-.134M262.188 86.225V63.732h2.89v22.493h-2.89" fill="#fff"/><path d="M262.188 86.225h.133v-22.36h2.623v22.227h-2.756v.133h.133-.133v.134h3.023v-22.76h-3.156v22.76h.133v-.134M277.897 86.225h-2.892V66.496h-6.281v-2.764h15.456v2.764h-6.283v19.73" fill="#fff"/><path d="M277.897 86.225v-.133h-2.758v-19.73h-6.282v-2.497h15.19v2.498h-6.283v19.862h.133v-.133.133h.134V66.63h6.282V63.6h-15.722v3.03h6.281v19.73h3.159v-.134h-.134M299.083 81.435c1.665 1.686 3.701 2.528 6.109 2.528 2.41 0 4.448-.842 6.11-2.528 1.666-1.686 2.5-3.839 2.5-6.456 0-2.618-.834-4.771-2.5-6.456-1.662-1.687-3.7-2.528-6.11-2.528-2.408 0-4.444.841-6.11 2.528-1.662 1.685-2.497 3.838-2.497 6.456 0 2.617.835 4.77 2.498 6.456zm14.358 1.884c-2.212 2.273-4.961 3.408-8.249 3.408-3.287 0-6.036-1.135-8.244-3.408-2.212-2.272-3.313-5.052-3.313-8.34 0-3.288 1.101-6.068 3.313-8.34 2.208-2.274 4.957-3.411 8.244-3.411 3.27 0 6.012 1.143 8.235 3.425 2.218 2.283 3.328 5.058 3.328 8.326 0 3.288-1.107 6.068-3.314 8.34" fill="#fff"/><path d="M299.083 81.435l-.095.093c1.687 1.71 3.764 2.57 6.204 2.568 2.44.001 4.521-.857 6.205-2.568 1.692-1.71 2.54-3.904 2.539-6.55.001-2.645-.847-4.84-2.539-6.55-1.684-1.71-3.765-2.568-6.205-2.567-2.44-.001-4.517.858-6.204 2.567-1.688 1.71-2.537 3.905-2.536 6.55-.001 2.646.848 4.84 2.535 6.55l.096-.093.094-.094c-1.637-1.661-2.457-3.773-2.458-6.362.001-2.59.821-4.702 2.458-6.363 1.644-1.661 3.638-2.487 6.015-2.488 2.379.001 4.376.827 6.016 2.488 1.64 1.661 2.461 3.773 2.461 6.363 0 2.589-.821 4.701-2.461 6.362-1.64 1.662-3.637 2.487-6.016 2.488-2.377-.001-4.37-.826-6.015-2.488zm14.358 1.884l-.096-.094c-2.189 2.25-4.896 3.367-8.153 3.368-3.257-.001-5.964-1.118-8.148-3.368-2.188-2.249-3.275-4.988-3.276-8.246.001-3.258 1.088-5.998 3.276-8.247 2.184-2.25 4.892-3.368 8.148-3.37 3.239.002 5.939 1.126 8.139 3.385 2.194 2.26 3.289 4.994 3.29 8.232-.001 3.257-1.092 5.997-3.276 8.246l.096.094.095.093c2.23-2.295 3.352-5.116 3.352-8.433 0-3.298-1.124-6.114-3.367-8.419-2.244-2.307-5.028-3.467-8.329-3.465-3.317-.002-6.11 1.153-8.34 3.452-2.235 2.293-3.352 5.114-3.35 8.432-.002 3.317 1.115 6.138 3.35 8.433 2.23 2.297 5.023 3.45 8.34 3.448 3.319.001 6.11-1.15 8.344-3.448l-.095-.093M320.81 86.225V63.732h3.518l10.932 17.499h.125l-.125-4.336V63.732h2.892v22.493h-3.016L323.699 67.88h-.124l.124 4.335v14.01h-2.888" fill="#fff"/><path d="M320.81 86.225h.134v-22.36h3.31l10.933 17.499h.336l-.13-4.47V63.864h2.626v22.227h-2.81l-11.436-18.345h-.336l.128 4.469v13.876h-2.754v.133h.133-.133v.134h3.021V72.213l-.124-4.337-.133.004v.133h.05l11.436 18.346h3.224v-22.76h-3.158v13.298l.125 4.336.133-.002v-.134h-.05L324.403 63.6h-3.726v22.76h.134v-.134M438.38 149.956h6.993v-46.865h-6.993zm63.007-29.983l-8.019 20.32h-.241l-8.322-20.32h-7.536l12.48 28.398-7.114 15.797h7.296l19.233-44.195zm-39.674 24.66c-2.292 0-5.486-1.145-5.486-3.98 0-3.617 3.978-5.004 7.416-5.004 3.074 0 4.521.663 6.39 1.568-.542 4.34-4.28 7.416-8.32 7.416zm.844-25.685c-5.065 0-10.31 2.23-12.481 7.175l6.21 2.593c1.327-2.593 3.8-3.437 6.391-3.437 3.619 0 7.296 2.17 7.356 6.029v.482c-1.265-.723-3.978-1.809-7.294-1.809-6.694 0-13.507 3.679-13.507 10.552 0 6.271 5.487 10.31 11.637 10.31 4.703 0 7.295-2.11 8.924-4.582h.24v3.618h6.754V131.91c0-8.32-6.211-12.963-14.23-12.963zm-43.23 6.73h-9.948v-16.065h9.948c5.229 0 8.2 4.33 8.2 8.032 0 3.633-2.971 8.033-8.2 8.033zm-.182-22.587h-16.761v46.865h6.995v-17.755h9.766c7.755 0 15.376-5.614 15.376-14.556 0-8.941-7.621-14.554-15.376-14.554zm-91.401 41.55c-4.83 0-8.877-4.046-8.877-9.602 0-5.617 4.046-9.724 8.877-9.724 4.772 0 8.516 4.107 8.516 9.724 0 5.556-3.744 9.602-8.516 9.602zm8.033-22.044h-.241c-1.57-1.872-4.59-3.563-8.396-3.563-7.972 0-15.28 7.006-15.28 16.005 0 8.938 7.308 15.884 15.28 15.884 3.805 0 6.825-1.691 8.396-3.625h.241v2.297c0 6.1-3.261 9.361-8.516 9.361-4.288 0-6.945-3.08-8.032-5.677l-6.101 2.536c1.752 4.228 6.403 9.422 14.133 9.422 8.214 0 15.16-4.832 15.16-16.609V120h-6.644zm11.475 27.36h7.007V103.09h-7.007zm17.335-15.461c-.182-6.161 4.77-9.302 8.333-9.302 2.779 0 5.135 1.39 5.92 3.383zm21.741-5.316c-1.328-3.563-5.375-10.146-13.65-10.146-8.213 0-15.037 6.462-15.037 15.945 0 8.938 6.764 15.944 15.823 15.944 7.308 0 11.536-4.47 13.287-7.066l-5.435-3.624c-1.812 2.658-4.288 4.408-7.852 4.408-3.563 0-6.1-1.63-7.73-4.83l21.32-8.818zm-169.855-5.254v6.764h16.187c-.484 3.806-1.75 6.583-3.684 8.517-2.356 2.354-6.04 4.952-12.503 4.952-9.965 0-17.756-8.034-17.756-17.999 0-9.965 7.791-17.997 17.756-17.997 5.376 0 9.302 2.114 12.2 4.831l4.772-4.771c-4.046-3.865-9.421-6.825-16.972-6.825-13.649 0-25.124 11.113-25.124 24.762 0 13.65 11.475 24.763 25.124 24.763 7.37 0 12.926-2.416 17.274-6.946 4.469-4.47 5.858-10.75 5.858-15.823 0-1.57-.12-3.02-.362-4.228zm41.534 20.715c-4.832 0-8.999-3.985-8.999-9.662 0-5.738 4.167-9.664 8.999-9.664 4.832 0 8.998 3.926 8.998 9.664 0 5.677-4.166 9.662-8.998 9.662zm0-25.607c-8.819 0-16.006 6.703-16.006 15.945 0 9.18 7.187 15.944 16.006 15.944 8.817 0 16.004-6.764 16.004-15.944 0-9.242-7.187-15.945-16.004-15.945zm34.914 25.607c-4.832 0-8.998-3.985-8.998-9.662 0-5.738 4.166-9.664 8.998-9.664 4.832 0 8.999 3.926 8.999 9.664 0 5.677-4.167 9.662-8.999 9.662zm0-25.607c-8.818 0-16.005 6.703-16.005 15.945 0 9.18 7.187 15.944 16.005 15.944 8.818 0 16.006-6.764 16.006-15.944 0-9.242-7.188-15.945-16.006-15.945" fill="#fff"/><g clip-path="url(#a)" transform="matrix(.13333 0 0 -.13333 0 224.933)"><path d="M576.66 495.141l-2.086 2.007c-8.176 8.653-13.015 22.09-13.015 39.5v-4.097 621.829c0 .05 0 .1.004.16-.004-.06-.004-.12-.004-.17v-4.11c0 18.85 5.64 33.05 15.078 41.56l348.351-348.355L576.66 495.141m-14.953 664.379c0 .03.004.07.008.11-.004-.04-.008-.08-.008-.11m.012.2c0 .03.004.05.004.07 0-.02-.004-.04-.004-.07m.011.22v0" fill="url(#b)"/></g><g clip-path="url(#c)" transform="matrix(.13333 0 0 -.13333 0 224.933)"><path d="M1041.09 723.195l2.65 1.508 137.57 78.168c12.66 7.195 21.24 15.863 25.74 25.055-4.5-9.199-13.08-17.871-25.74-25.071l-137.57-78.164-2.65-1.496m.03 4.125L924.988 843.465l116.132 116.144 140.19-79.652c17.81-10.117 27.8-23.148 29.47-36.469v-.054c-1.67-13.297-11.66-26.336-29.47-36.454l-140.19-79.66" fill="url(#d)"/></g><g clip-path="url(#e)" transform="matrix(.13333 0 0 -.13333 0 224.933)"><path d="M601.492 481.879c-9.726 0-18.215 3.172-24.836 9.141l.012.011c6.621-5.98 15.117-9.152 24.852-9.152a45.94 45.94 0 01-.028 0m.02 4.109c-9.731 0-18.223 3.172-24.844 9.141l-.008.012 348.328 348.324L1041.12 727.32 633.004 495.43c-11.289-6.41-21.984-9.442-31.492-9.442m-24.965 5.133a32.822 32.822 0 00-1.789 1.738l1.789-1.738" fill="url(#f)"/></g><g clip-path="url(#g)" transform="matrix(.13333 0 0 -.13333 0 224.933)"><path d="M924.988 843.465L576.637 1191.82c6.613 5.97 15.097 9.13 24.82 9.13 9.527 0 20.238-3.04 31.547-9.46l408.116-231.881-116.132-116.144m118.752 118.762L633.004 1195.59c-11.309 6.43-22.024 9.47-31.551 9.47h-.238.277c9.512 0 20.215-3.04 31.512-9.45l410.736-233.38" fill="url(#h)"/></g><path d="M80.808 160.653c1.11-.108 2.323-.51 3.593-1.23l54.411-30.916-54.411 30.916c-1.27.722-2.483 1.122-3.593 1.23m-3.921-1.188l-.014-.014.014.013v.001m-.253-.246l-.024-.024v-.002l.024.026" fill="#100f0d"/><g clip-path="url(#i)" transform="matrix(.13333 0 0 -.13333 0 224.933)"><path d="M1041.09 723.195l2.65 1.508-2.65-1.504" fill="url(#j)"/></g><g clip-path="url(#k)" transform="matrix(.13333 0 0 -.13333 0 224.933)"><path d="M601.52 481.879c-9.735 0-18.231 3.172-24.852 9.152l-.012-.011c-.035.031-.074.058-.109.101l-1.789 1.738c-.059.063-.117.121-.18.192l2.09 2.078c6.621-5.969 15.113-9.141 24.844-9.141 9.508 0 20.203 3.032 31.492 9.442l408.116 231.89 2.62-2.617-2.65-1.504-408.086-231.871c-9.524-5.406-18.621-8.418-26.945-9.226a45.94 45.94 0 00-4.539-.223" fill="url(#l)"/></g><path d="M76.61 159.195c-1.09-1.155-1.735-2.946-1.735-5.267v-.001c0 2.322.645 4.112 1.735 5.266v.002" fill="#100f0d"/><g clip-path="url(#m)" transform="matrix(.13333 0 0 -.13333 0 224.933)"><path d="M574.574 493.051c-8.176 8.66-13.015 22.078-13.015 39.5v4.097c0-17.41 4.839-30.847 13.015-39.5l2.086-2.007-2.086-2.09" fill="url(#n)"/></g><g clip-path="url(#o)" transform="matrix(.13333 0 0 -.13333 0 224.933)"><path d="M574.578 493.051h-.004l2.086 2.09.008-.012-2.09-2.078" fill="url(#p)"/></g><path d="M160.94 114.543c.33-.675.497-1.371.497-2.068v-.002c0 .697-.165 1.394-.497 2.07" fill="#100f0d"/><g clip-path="url(#q)" transform="matrix(.13333 0 0 -.13333 0 224.933)"><path d="M1043.74 724.703l-2.62 2.617 140.19 79.66c17.81 10.118 27.8 23.157 29.47 36.454 0-5.223-1.25-10.446-3.73-15.508-4.5-9.192-13.08-17.86-25.74-25.055l-137.57-78.168" fill="url(#r)"/></g><path d="M161.437 112.471v-.003c-.001-1.96-1.312-3.92-3.929-5.408l-18.343-10.423h-.001l.001-.001 18.343 10.422c2.62 1.488 3.932 3.452 3.93 5.413" fill="#3a3a3b"/><g clip-path="url(#s)" transform="matrix(.13333 0 0 -.13333 0 224.933)"><path d="M1210.78 843.488c-1.67 13.321-11.66 26.352-29.47 36.469l-140.19 79.652 2.61 2.614.01-.004 137.57-78.168c19.63-11.156 29.46-25.856 29.47-40.563" fill="url(#t)"/></g><path d="M74.875 70.995v-.002.002m.019-.659v-.005.005m.001-.02v-.012.012m.001-.021l.001-.02v.02m0-.023c.24-3.803 2.324-5.997 5.265-6.013-1.281.008-2.4.429-3.275 1.218l-.012.012a4.72 4.72 0 00-.265.26c-.97 1.027-1.589 2.56-1.713 4.523" fill="#3a3a3b"/><g clip-path="url(#u)" transform="matrix(.13333 0 0 -.13333 0 224.933)"><path d="M561.559 1150.26v4.11c0 .05 0 .11.004.17v.01a87.913 87.913 0 00.144 4.97c0 .03.004.07.008.11 0 .03 0 .06.004.09 0 .03.004.05.004.07.004.05.004.1.007.15v.02c.93 14.72 5.563 26.22 12.844 33.92l2.063-2.06c-9.438-8.51-15.078-22.71-15.078-41.56m15 45.57l.093.09c-.027-.03-.062-.06-.093-.09" fill="url(#v)"/></g></svg>